# xmcd CD database file
#
# Track frame offsets:
#	150
#	15659
#	37073
#	44717
#	74656
#	97388
#	111247
#	127629
#	152103
#	176762
#	191088
#	206766
#
# Disc length: 2913 seconds
#
# Revision: 0
# Processed by: cddbd v1.5.2PL0 Copyright (c) Steve Scherf et al.
# Submitted via: CDex 1.70beta2
#
DISCID=b70b5f0c
DTITLE=Harold Lopez-Nussa Trio - El Pais de las Maravillas
DYEAR=2011
DGENRE=Jazz
TTITLE0=Guajira
TTITLE1=Caminos
TTITLE2=Interludio
TTITLE3=Ela Pais de las Maravillas
TTITLE4=La fiesta va
TTITLE5=Perla marina
TTITLE6=Pa' gozar... y no parar!
TTITLE7=A camilin
TTITLE8=Bailando suiza
TTITLE9=E'cha
TTITLE10=Volver
TTITLE11=Amanecer
EXTD=YEAR: 2011
EXTT0=
EXTT1=
EXTT2=
EXTT3=
EXTT4=
EXTT5=
EXTT6=
EXTT7=
EXTT8=
EXTT9=
EXTT10=
EXTT11=
PLAYORDER=
